<svg width="62" height="45" viewBox="0 0 62 45" fill="none" xmlns="http://www.w3.org/2000/svg">
<path d="M46.5236 29.0974C46.4092 29.058 46.3018 28.9924 46.2107 28.901L43.0514 25.7272L40.52 27.7225C40.2479 27.9372 39.897 27.9935 39.5805 27.8845C39.5139 27.8615 39.4489 27.8312 39.3863 27.7935C39.0271 27.5769 38.8441 27.1703 38.9201 26.7579L39.6947 22.3551L35.52 24.3361C35.1369 24.5179 34.6792 24.4373 34.3815 24.1355C34.0837 23.8337 34.009 23.3752 34.1957 22.9944L36.007 19.303L32.2008 21.0517C31.7901 21.2404 31.3021 21.1288 31.0143 20.7802C30.7265 20.4317 30.7091 19.9315 30.9722 19.5637L33.4832 16.0536L29.0539 17.4209C28.6219 17.5543 28.1635 17.3122 28.0301 16.8801C27.8967 16.448 28.1388 15.9897 28.5708 15.8563L33.6861 14.2772L32.9829 10.9861C32.9539 10.8509 32.8617 10.784 32.8094 10.7562C32.7571 10.7283 32.6499 10.6894 32.5219 10.7412L29.3104 12.0396C28.8911 12.2091 28.4139 12.0067 28.2444 11.5874C28.075 11.1682 28.2773 10.6909 28.6966 10.5215L31.9081 9.22311C32.4514 9.00348 33.0601 9.03498 33.5773 9.30991C34.0949 9.58471 34.4619 10.0709 34.5843 10.6439L35.2802 13.901C35.5302 13.9453 35.7602 14.0841 35.9158 14.2998C36.1666 14.6477 36.1674 15.1157 35.9179 15.4645L35.7679 15.6744C35.9951 16.1761 36.8071 17.1334 36.8071 17.1334L36.9552 17.0654C37.3381 16.8895 37.7928 16.9739 38.087 17.2757C38.381 17.5774 38.4538 18.0341 38.2683 18.4122L38.2062 18.5387L40.0385 20.3794L40.1614 20.321C40.5018 20.1596 40.8984 20.2019 41.1974 20.4312C41.4961 20.6608 41.6393 21.0333 41.5711 21.4038L41.491 21.8385L43.1851 23.5403C43.5376 23.2994 44.021 23.3688 44.2892 23.709C44.517 23.9981 44.519 24.3928 44.3203 24.6807L47.3712 27.7457C47.6902 28.0661 47.689 28.5845 47.3685 28.9036C47.1396 29.1315 46.8097 29.1961 46.5236 29.0974ZM34.712 17.1505L33.7045 18.5589L35.2374 17.8546C35.0453 17.6317 34.87 17.3963 34.712 17.1505ZM37.4433 20.0934L36.4728 22.0714L38.4693 21.124L37.4433 20.0934ZM40.8376 25.3872L41.8884 24.5589L41.1304 23.7974L40.8376 25.3872Z" fill="white"/>
<path d="M3.76286 18.4649C3.77035 18.4344 4.81691 15.5033 5.305 14.0872C5.3109 14.0701 5.31719 14.0535 5.32433 14.0368C5.83897 12.8268 6.90112 12.2451 7.83819 11.7318C8.16343 11.5538 8.47408 11.3831 8.75472 11.1944C8.3018 10.4615 8.46071 9.51503 9.13731 8.9725L10.2393 8.0887C10.8046 7.63542 11.5671 7.59568 12.1626 7.94539L14.3607 4.31037C14.6448 3.84052 15.2184 3.63279 15.7376 3.81173L19.9452 5.26203C20.8869 5.58661 21.3873 6.61311 21.0626 7.55487L20.0707 10.4326C19.9999 10.6379 19.9548 10.8525 19.9516 11.0696C19.9375 11.9989 20.551 12.802 21.445 13.0356C21.8678 13.1461 22.3165 13.1013 22.7217 12.9375L25.4592 11.8308C25.8862 11.6581 26.3733 11.8714 26.5343 12.3065C26.6898 12.727 26.457 13.1937 26.0413 13.3618L23.2984 14.4707C22.4815 14.8009 21.5809 14.8209 20.7596 14.5377C20.5949 14.4809 20.4334 14.4119 20.2764 14.3308C19.3364 13.8455 18.6573 12.9768 18.4127 11.9476C18.2537 11.2777 18.2881 10.5795 18.5124 9.92852L19.5145 7.02128C19.5444 6.93459 19.4983 6.84007 19.4116 6.81019L15.5647 5.48422L13.374 9.10672L15.8271 11.6419C16.1596 11.9855 16.333 12.4563 16.3028 12.9335C16.2726 13.4107 16.0415 13.8559 15.6685 14.1549L13.9081 15.5668C13.6675 15.7598 13.3837 15.8973 13.0788 15.944C12.7941 15.9876 12.5154 15.9595 12.2601 15.8716C11.9073 15.75 11.6001 15.5141 11.392 15.1987L9.65437 12.5633C9.31597 12.7896 8.96612 12.9815 8.62491 13.1684C7.82963 13.6039 7.14143 13.9808 6.8428 14.6519C6.50654 15.6274 6.16186 16.6248 5.80873 17.6135C6.66969 17.454 7.58153 17.5064 8.46677 17.8115L18.0803 21.1251C20.8621 22.0839 23.2747 23.888 24.9811 26.285L25.4763 26.9808C26.0284 27.7564 26.8091 28.34 27.7091 28.6502L48.5381 35.8296C49.5831 36.1898 50.6809 36.3729 51.7862 36.3714L53.1105 36.3697C53.0446 35.9598 52.8534 35.5744 52.5542 35.2737L48.6952 31.397C48.4014 31.1019 48.3518 30.6279 48.6077 30.2993C48.9173 29.9021 49.4926 29.8769 49.8363 30.2221L53.7148 34.1184C54.1102 34.5158 54.3901 35.0664 54.5536 35.6561C54.7796 36.471 54.7393 37.3373 54.4835 38.1432C54.4765 38.1652 54.4725 38.1776 54.4725 38.1776C53.3518 41.4291 49.7946 43.1627 46.543 42.042L5.12347 27.7655C2.39923 26.8265 0.868928 23.8799 1.76612 21.1416C2.13664 20.0107 2.85542 19.0932 3.76286 18.4649ZM12.759 14.297C12.7629 14.303 12.7749 14.3213 12.8036 14.3256C12.8323 14.3302 12.8493 14.3166 12.8548 14.312L14.6439 12.8772C14.6495 12.8727 14.6666 12.8591 14.6683 12.8302C14.6702 12.8013 14.6549 12.7856 14.65 12.7804L11.352 9.37176C11.3445 9.36409 11.3355 9.35848 11.3261 9.3552C11.3054 9.34809 11.2818 9.35151 11.2637 9.36617L10.1618 10.25C10.1351 10.2713 10.1294 10.3088 10.1481 10.3372L12.759 14.297ZM15.7283 22.0465L15.2207 23.5194C15.0733 23.9469 14.6073 24.174 14.1798 24.0267C13.7523 23.8793 13.5251 23.4133 13.6725 22.9858L14.1802 21.5129L11.7878 20.6883L9.43333 27.5191L11.8258 28.3437L12.5354 26.2847C12.6828 25.8572 13.1488 25.6301 13.5763 25.7775C14.0038 25.9248 14.2309 26.3908 14.0836 26.8183L13.3739 28.8773L15.7663 29.7019L18.1155 22.8865C17.9278 22.8115 17.7386 22.7394 17.5463 22.6731L15.7283 22.0465ZM17.3145 30.2354L19.707 31.06L21.7525 25.1254C21.093 24.5406 20.373 24.0294 19.6027 23.5969L17.3145 30.2354ZM24.1419 27.9304L23.6466 27.2346C23.4513 26.9603 23.2459 26.6955 23.0315 26.4399L21.2551 31.5938L23.6475 32.4184L24.8937 28.8029C24.6191 28.5378 24.367 28.2467 24.1419 27.9304ZM26.279 29.809L25.1957 32.952L27.5881 33.7766L28.6466 30.7057L27.1751 30.1985C26.8642 30.0912 26.565 29.9608 26.279 29.809ZM40.4684 34.7803L38.0759 33.9557L37.0174 37.0266L39.4099 37.8512L40.4684 34.7803ZM40.958 38.3848L43.3505 39.2095L44.4089 36.1385L42.0165 35.3139L40.958 38.3848ZM36.5278 33.4221L34.1353 32.5974L33.0769 35.6684L35.4693 36.493L36.5278 33.4221ZM32.5872 32.0638L30.1948 31.2392L29.1363 34.3101L31.5287 35.1348L32.5872 32.0638ZM52.7816 38.0078L51.7884 38.0091C51.1719 38.0099 50.5597 37.9604 49.955 37.8641L48.9681 40.7273C50.6006 40.5851 52.0899 39.5727 52.7816 38.0078ZM47.2928 40.5624L48.352 37.4895C48.2358 37.4535 45.9571 36.672 45.9571 36.672L44.8986 39.743C44.8986 39.7431 47.2206 40.5415 47.2928 40.5624ZM7.8852 26.9853L10.2396 20.1545C10.2396 20.1545 7.8753 19.3412 7.84647 19.3321L5.49353 26.1585C5.52177 26.1691 7.8852 26.9853 7.8852 26.9853ZM4.08824 25.2101L6.15519 19.2133C4.8947 19.4281 3.78555 20.3059 3.3403 21.5977C2.89505 22.8895 3.22775 24.2643 4.08824 25.2101Z" fill="white"/>
</svg>
